<svg width="34" height="34" viewBox="0 0 34 34" fill="none" xmlns="http://www.w3.org/2000/svg">
<path fill-rule="evenodd" clip-rule="evenodd" d="M26.0058 7.735C25.9033 6.85253 25.5056 6.03057 24.8772 5.40257C24.2489 4.77457 23.4267 4.37739 22.5441 4.2755L20.8441 5.9755C22.3693 6.68597 23.5955 7.91075 24.3079 9.435L26.0058 7.735ZM20.655 1.6575L16.405 5.9075L7.82 14.4925C6.88041 15.4319 6.25782 16.6414 6.03925 17.952L5.27 22.5675C5.21468 22.9011 5.23975 23.243 5.34313 23.5649C5.44652 23.8869 5.62522 24.1795 5.86441 24.4184C6.1036 24.6574 6.39637 24.8359 6.71838 24.939C7.04039 25.0421 7.38236 25.0669 7.71588 25.0113L12.3271 24.2463C13.6387 24.0275 14.849 23.4041 15.7887 22.4634L24.3738 13.8784L28.6238 9.62838C29.0063 9.24588 29.2188 8.7295 29.2188 8.18975C29.219 7.25389 29.0349 6.32714 28.677 5.46243C28.319 4.59773 27.7943 3.81201 27.1326 3.15015C26.4709 2.4883 25.6854 1.96328 24.8208 1.60507C23.9562 1.24687 23.0295 1.0625 22.0936 1.0625C21.5539 1.0625 21.0354 1.275 20.6529 1.6575M5.84375 27.625C5.42106 27.625 5.01568 27.7929 4.7168 28.0918C4.41791 28.3907 4.25 28.7961 4.25 29.2188C4.25 29.6414 4.41791 30.0468 4.7168 30.3457C5.01568 30.6446 5.42106 30.8125 5.84375 30.8125H28.1562C28.5789 30.8125 28.9843 30.6446 29.2832 30.3457C29.5821 30.0468 29.75 29.6414 29.75 29.2188C29.75 28.7961 29.5821 28.3907 29.2832 28.0918C28.9843 27.7929 28.5789 27.625 28.1562 27.625H5.84375Z" fill="#DEDEDE"/>
</svg>
