<svg width="32" height="33" viewBox="0 0 32 33" fill="none" xmlns="http://www.w3.org/2000/svg">
<path d="M9.33398 8.25H22.6673M9.33398 12.375H22.6673M12.0007 23.375H20.0007" stroke="#DEDEDE" stroke-width="3" stroke-linecap="round" stroke-linejoin="round"/>
<path d="M4.00033 16.5H3.46699C3.25482 16.5 3.05134 16.5869 2.90131 16.7416C2.75128 16.8964 2.66699 17.1062 2.66699 17.325V29.425C2.66699 29.5333 2.68768 29.6406 2.72789 29.7407C2.76809 29.8408 2.82702 29.9318 2.90131 30.0084C2.97559 30.085 3.06378 30.1457 3.16085 30.1872C3.25791 30.2287 3.36193 30.25 3.46699 30.25H28.5337C28.6387 30.25 28.7427 30.2287 28.8398 30.1872C28.9369 30.1457 29.0251 30.085 29.0993 30.0084C29.1736 29.9318 29.2326 29.8408 29.2728 29.7407C29.313 29.6406 29.3337 29.5333 29.3337 29.425V17.325C29.3337 17.1062 29.2494 16.8964 29.0993 16.7416C28.9493 16.5869 28.7458 16.5 28.5337 16.5H28.0003M4.00033 16.5V3.575C4.00033 3.3562 4.08461 3.14635 4.23464 2.99164C4.38467 2.83692 4.58815 2.75 4.80033 2.75H27.2003C27.4125 2.75 27.616 2.83692 27.766 2.99164C27.916 3.14635 28.0003 3.3562 28.0003 3.575V16.5M4.00033 16.5H28.0003" stroke="#DEDEDE" stroke-width="3"/>
</svg>
