<svg width="23" height="22" viewBox="0 0 23 22" fill="none" xmlns="http://www.w3.org/2000/svg">
<path d="M11.5009 2.09513C12.7865 0.944997 14.4637 0.330713 16.1881 0.378414C17.9124 0.426115 19.5531 1.13218 20.7732 2.35163C21.9919 3.57022 22.6984 5.20885 22.7478 6.93161C22.7971 8.65437 22.1856 10.3308 21.0387 11.6171L11.4987 21.1706L1.96091 11.6171C0.812569 10.3301 0.200509 8.65226 0.250384 6.92812C0.300259 5.20397 1.00828 3.56433 2.2291 2.34582C3.44992 1.1273 5.09089 0.422378 6.81513 0.375759C8.53936 0.329141 10.216 0.944368 11.5009 2.09513ZM19.1802 3.94126C18.3672 3.12965 17.2746 2.65969 16.1262 2.62769C14.9779 2.59569 13.8608 3.00406 13.0039 3.76913L11.502 5.11688L9.99903 3.77026C9.14591 3.00739 8.03418 2.59823 6.89006 2.62605C5.74593 2.65386 4.6554 3.11656 3.84036 3.91999C3.02532 4.72342 2.54702 5.80721 2.50279 6.95081C2.45856 8.09442 2.85173 9.21191 3.60228 10.0759L11.4998 17.9858L19.3973 10.077C20.1447 9.21684 20.5379 8.10516 20.4976 6.96636C20.4573 5.82755 19.9865 4.74645 19.1802 3.94126Z" fill="#BEBDBD"/>
</svg>
